<mxfile host="Electron" modified="2023-12-28T03:32:07.515Z" agent="Mozilla/5.0 (X11; Linux x86_64) AppleWebKit/537.36 (KHTML, like Gecko) draw.io/22.1.11 Chrome/114.0.5735.289 Electron/25.9.8 Safari/537.36" etag="EupGdq-ZYImDrQHR4yhm" version="22.1.11" type="device">
  <diagram name="Page-1" id="3ognbXSng7ltKSvOxRZD">
    <mxGraphModel dx="1050" dy="635" grid="1" gridSize="10" guides="1" tooltips="1" connect="1" arrows="1" fold="1" page="1" pageScale="1" pageWidth="827" pageHeight="1169" math="1" shadow="0">
      <root>
        <mxCell id="0" />
        <mxCell id="1" parent="0" />
        <mxCell id="d3XYJ0kTGgPDI1fNx5ZZ-9" style="edgeStyle=orthogonalEdgeStyle;rounded=0;orthogonalLoop=1;jettySize=auto;html=1;entryX=1;entryY=0.5;entryDx=0;entryDy=0;curved=1;exitX=0;exitY=0.5;exitDx=0;exitDy=0;fillColor=#ffe6cc;strokeColor=#d79b00;strokeWidth=2;" parent="1" source="4VmKUjLTyp0WvEaDqI3_-3" target="d3XYJ0kTGgPDI1fNx5ZZ-5" edge="1">
          <mxGeometry relative="1" as="geometry">
            <mxPoint x="280" y="60" as="sourcePoint" />
          </mxGeometry>
        </mxCell>
        <mxCell id="d3XYJ0kTGgPDI1fNx5ZZ-16" value="&lt;font style=&quot;font-size: 16px;&quot;&gt;\(\pi_A\)&lt;/font&gt;" style="edgeLabel;html=1;align=center;verticalAlign=top;resizable=0;points=[];labelBackgroundColor=none;fontSize=10;fontColor=#D79B00;" parent="d3XYJ0kTGgPDI1fNx5ZZ-9" vertex="1" connectable="0">
          <mxGeometry x="-0.319" y="-2" relative="1" as="geometry">
            <mxPoint x="-13" y="2" as="offset" />
          </mxGeometry>
        </mxCell>
        <mxCell id="d3XYJ0kTGgPDI1fNx5ZZ-10" style="edgeStyle=orthogonalEdgeStyle;rounded=0;orthogonalLoop=1;jettySize=auto;html=1;exitX=0.69;exitY=0.09;exitDx=0;exitDy=0;entryX=0;entryY=0.5;entryDx=0;entryDy=0;curved=1;fillColor=#ffe6cc;strokeColor=#d79b00;strokeWidth=2;exitPerimeter=0;" parent="1" source="4VmKUjLTyp0WvEaDqI3_-3" target="d3XYJ0kTGgPDI1fNx5ZZ-6" edge="1">
          <mxGeometry relative="1" as="geometry" />
        </mxCell>
        <mxCell id="d3XYJ0kTGgPDI1fNx5ZZ-12" style="edgeStyle=orthogonalEdgeStyle;rounded=0;orthogonalLoop=1;jettySize=auto;html=1;exitX=1;exitY=1;exitDx=0;exitDy=0;entryX=0;entryY=0.5;entryDx=0;entryDy=0;curved=1;fillColor=#ffe6cc;strokeColor=#d79b00;strokeWidth=2;" parent="1" source="4VmKUjLTyp0WvEaDqI3_-3" target="d3XYJ0kTGgPDI1fNx5ZZ-8" edge="1">
          <mxGeometry relative="1" as="geometry" />
        </mxCell>
        <mxCell id="d3XYJ0kTGgPDI1fNx5ZZ-25" style="edgeStyle=orthogonalEdgeStyle;rounded=0;orthogonalLoop=1;jettySize=auto;html=1;exitX=1;exitY=0.5;exitDx=0;exitDy=0;entryX=0;entryY=0.5;entryDx=0;entryDy=0;curved=1;dashed=1;fillColor=#ffe6cc;strokeColor=#d79b00;strokeWidth=2;" parent="1" source="4VmKUjLTyp0WvEaDqI3_-3" target="d3XYJ0kTGgPDI1fNx5ZZ-20" edge="1">
          <mxGeometry relative="1" as="geometry" />
        </mxCell>
        <mxCell id="d3XYJ0kTGgPDI1fNx5ZZ-5" value="&lt;font style=&quot;font-size: 16px;&quot;&gt;\(A\)&lt;/font&gt;" style="ellipse;whiteSpace=wrap;html=1;aspect=fixed;fillColor=#fff2cc;strokeColor=#d6b656;fontColor=#D79B00;strokeWidth=2;" parent="1" vertex="1">
          <mxGeometry x="160" y="120" width="40" height="40" as="geometry" />
        </mxCell>
        <mxCell id="d3XYJ0kTGgPDI1fNx5ZZ-6" value="&lt;span style=&quot;font-size: 16px;&quot;&gt;\(B\)&lt;/span&gt;" style="ellipse;whiteSpace=wrap;html=1;aspect=fixed;fillColor=#fff2cc;strokeColor=#d6b656;fontColor=#D79B00;strokeWidth=2;" parent="1" vertex="1">
          <mxGeometry x="400" y="40" width="40" height="40" as="geometry" />
        </mxCell>
        <mxCell id="d3XYJ0kTGgPDI1fNx5ZZ-8" value="&lt;span style=&quot;font-size: 16px;&quot;&gt;\(C\)&lt;/span&gt;" style="ellipse;whiteSpace=wrap;html=1;aspect=fixed;fillColor=#fff2cc;strokeColor=#d6b656;fontColor=#D79B00;strokeWidth=2;" parent="1" vertex="1">
          <mxGeometry x="400" y="200" width="40" height="40" as="geometry" />
        </mxCell>
        <mxCell id="d3XYJ0kTGgPDI1fNx5ZZ-17" value="&lt;font style=&quot;font-size: 16px;&quot;&gt;\(\pi_B\)&lt;/font&gt;" style="edgeLabel;html=1;align=center;verticalAlign=top;resizable=0;points=[];labelBackgroundColor=none;fontSize=10;fontColor=#D79B00;" parent="1" vertex="1" connectable="0">
          <mxGeometry x="339.9960427559487" y="60.00278078075392" as="geometry" />
        </mxCell>
        <mxCell id="d3XYJ0kTGgPDI1fNx5ZZ-19" value="&lt;font style=&quot;font-size: 16px;&quot;&gt;\(\pi_C\)&lt;/font&gt;" style="edgeLabel;html=1;align=center;verticalAlign=top;resizable=0;points=[];labelBackgroundColor=none;fontSize=10;fontColor=#D79B00;" parent="1" vertex="1" connectable="0">
          <mxGeometry x="339.9960427559487" y="180.00278078075394" as="geometry" />
        </mxCell>
        <mxCell id="d3XYJ0kTGgPDI1fNx5ZZ-21" style="edgeStyle=orthogonalEdgeStyle;rounded=0;orthogonalLoop=1;jettySize=auto;html=1;exitX=0;exitY=0;exitDx=0;exitDy=0;entryX=1;entryY=0.5;entryDx=0;entryDy=0;curved=1;fillColor=#ffe6cc;strokeColor=#d79b00;strokeWidth=2;" parent="1" source="d3XYJ0kTGgPDI1fNx5ZZ-20" target="d3XYJ0kTGgPDI1fNx5ZZ-6" edge="1">
          <mxGeometry relative="1" as="geometry" />
        </mxCell>
        <mxCell id="d3XYJ0kTGgPDI1fNx5ZZ-22" style="edgeStyle=orthogonalEdgeStyle;rounded=0;orthogonalLoop=1;jettySize=auto;html=1;exitX=0;exitY=1;exitDx=0;exitDy=0;entryX=1;entryY=0.5;entryDx=0;entryDy=0;curved=1;fillColor=#ffe6cc;strokeColor=#d79b00;strokeWidth=2;" parent="1" source="d3XYJ0kTGgPDI1fNx5ZZ-20" target="d3XYJ0kTGgPDI1fNx5ZZ-8" edge="1">
          <mxGeometry relative="1" as="geometry" />
        </mxCell>
        <mxCell id="d3XYJ0kTGgPDI1fNx5ZZ-20" value="&lt;font style=&quot;font-size: 16px;&quot;&gt;\(Q\)&lt;/font&gt;" style="ellipse;whiteSpace=wrap;html=1;aspect=fixed;fillColor=#ffe6cc;strokeColor=#d79b00;fontColor=#D79B00;strokeWidth=2;" parent="1" vertex="1">
          <mxGeometry x="520" y="120" width="40" height="40" as="geometry" />
        </mxCell>
        <mxCell id="d3XYJ0kTGgPDI1fNx5ZZ-23" value="&lt;font style=&quot;font-size: 16px;&quot;&gt;\(\pi_B&#39;\)&lt;/font&gt;" style="edgeLabel;html=1;align=center;verticalAlign=top;resizable=0;points=[];labelBackgroundColor=none;fontSize=10;fontColor=#D79B00;" parent="1" vertex="1" connectable="0">
          <mxGeometry x="499.9960427559487" y="60.00278078075392" as="geometry" />
        </mxCell>
        <mxCell id="d3XYJ0kTGgPDI1fNx5ZZ-24" value="&lt;font style=&quot;font-size: 16px;&quot;&gt;\(\pi_C&#39;\)&lt;/font&gt;" style="edgeLabel;html=1;align=center;verticalAlign=top;resizable=0;points=[];labelBackgroundColor=none;fontSize=10;fontColor=#D79B00;" parent="1" vertex="1" connectable="0">
          <mxGeometry x="499.9960427559487" y="180.00278078075394" as="geometry" />
        </mxCell>
        <mxCell id="d3XYJ0kTGgPDI1fNx5ZZ-26" value="&lt;font style=&quot;font-size: 16px;&quot;&gt;\(f\)&lt;/font&gt;" style="edgeLabel;html=1;align=center;verticalAlign=top;resizable=0;points=[];labelBackgroundColor=none;fontSize=10;fontColor=#D79B00;" parent="1" vertex="1" connectable="0">
          <mxGeometry x="419.9960427559487" y="120.00278078075392" as="geometry" />
        </mxCell>
        <mxCell id="4VmKUjLTyp0WvEaDqI3_-3" value="&lt;span style=&quot;font-size: 16px;&quot;&gt;\(P\)&lt;/span&gt;" style="ellipse;whiteSpace=wrap;html=1;aspect=fixed;fillColor=#ffe6cc;strokeColor=#d79b00;fontColor=#D79B00;strokeWidth=2;" parent="1" vertex="1">
          <mxGeometry x="280" y="120" width="40" height="40" as="geometry" />
        </mxCell>
      </root>
    </mxGraphModel>
  </diagram>
</mxfile>
